<svg width="500" height="500" viewBox="0 0 500 500" fill="none" xmlns="http://www.w3.org/2000/svg">
<path d="M114.129 364.968V208.194C114.129 202.65 116.331 197.333 120.252 193.413C124.172 189.493 129.488 187.29 135.032 187.29H364.968C370.512 187.29 375.829 189.493 379.749 193.413C383.669 197.333 385.871 202.65 385.871 208.194V364.968H114.129Z" fill="#939393"/>
<path d="M135.032 208.194H364.968V344.065H135.032V208.194Z" fill="#E2E7F6"/>
<path d="M135.032 208.194H349.29V328.387H135.032V208.194Z" fill="#F2F2F2"/>
<path d="M108.903 364.968H391.097C395.255 364.968 399.242 366.62 402.182 369.56C405.123 372.5 406.774 376.487 406.774 380.645C406.774 387.575 404.021 394.221 399.121 399.121C394.221 404.021 387.575 406.774 380.645 406.774H119.355C112.425 406.774 105.779 404.021 100.879 399.121C95.9787 394.221 93.2258 387.575 93.2258 380.645C93.2258 376.487 94.8776 372.5 97.8176 369.56C100.758 366.62 104.745 364.968 108.903 364.968V364.968Z" fill="#686868"/>
<path d="M166.387 93.2258H333.613V312.71H166.387V93.2258Z" fill="#C8CDED"/>
<path d="M166.387 93.2258H317.936V281.355H166.387V93.2258Z" fill="#E2E7F6"/>
<path d="M213.419 119.355H286.581V129.806H213.419V119.355ZM297.032 119.355H317.935V129.806H297.032V119.355ZM182.064 140.258H317.935V150.71H182.064V140.258Z" fill="#9DA1BF"/>
<path d="M187.29 182.065H218.645V213.419H187.29V182.065ZM187.29 250H218.645V281.355H187.29V250Z" fill="#559B2D"/>
<path d="M187.29 250H208.194V270.903H187.29V250ZM187.29 182.065H208.194V202.968H187.29V182.065Z" fill="#6BC13B"/>
<path d="M199.242 261.978L225.371 235.849L232.755 243.243L206.631 269.367L199.242 261.978Z" fill="#474747"/>
<path d="M234.323 202.968H317.935V213.419H234.323V202.968ZM255.226 182.065H317.935V192.516H255.226V182.065ZM234.323 270.903H317.935V281.355H234.323V270.903ZM255.226 250H317.935V260.452H255.226V250Z" fill="#9DA1BF"/>
<path d="M199.247 194.052L225.376 167.923L232.755 175.323L206.631 201.447L199.247 194.052Z" fill="#474747"/>
<path d="M391.097 359.742V208.194C391.088 201.266 388.333 194.625 383.435 189.727C378.536 184.828 371.895 182.073 364.968 182.065H338.839V93.2258C338.839 91.8398 338.288 90.5106 337.308 89.5306C336.328 88.5506 334.999 88 333.613 88H166.387C165.001 88 163.672 88.5506 162.692 89.5306C161.712 90.5106 161.161 91.8398 161.161 93.2258V182.065H135.032C128.105 182.073 121.464 184.828 116.565 189.727C111.667 194.625 108.912 201.266 108.903 208.194V359.742C103.359 359.742 98.0425 361.944 94.1224 365.864C90.2023 369.784 88 375.101 88 380.645C88.0083 388.958 91.3144 396.929 97.1928 402.807C103.071 408.686 111.042 411.992 119.355 412H380.645C388.958 411.992 396.929 408.686 402.807 402.807C408.686 396.929 411.992 388.958 412 380.645C412 375.101 409.798 369.784 405.878 365.864C401.957 361.944 396.641 359.742 391.097 359.742ZM171.613 98.4516H328.387V307.484H171.613V98.4516ZM333.613 317.935C334.999 317.935 336.328 317.385 337.308 316.405C338.288 315.425 338.839 314.096 338.839 312.71V213.419H359.742V338.839H140.258V213.419H161.161V312.71C161.161 314.096 161.712 315.425 162.692 316.405C163.672 317.385 165.001 317.935 166.387 317.935H333.613ZM119.355 208.194C119.355 204.036 121.007 200.048 123.947 197.108C126.887 194.168 130.874 192.516 135.032 192.516H161.161V202.968H135.032C133.646 202.968 132.317 203.518 131.337 204.498C130.357 205.478 129.806 206.808 129.806 208.194V344.065C129.806 345.45 130.357 346.78 131.337 347.76C132.317 348.74 133.646 349.29 135.032 349.29H364.968C366.354 349.29 367.683 348.74 368.663 347.76C369.643 346.78 370.194 345.45 370.194 344.065V208.194C370.194 206.808 369.643 205.478 368.663 204.498C367.683 203.518 366.354 202.968 364.968 202.968H338.839V192.516H364.968C369.126 192.516 373.113 194.168 376.053 197.108C378.993 200.048 380.645 204.036 380.645 208.194V359.742H119.355V208.194ZM380.645 401.548H119.355C113.811 401.548 108.494 399.346 104.574 395.426C100.654 391.506 98.4516 386.189 98.4516 380.645C98.4516 377.873 99.5528 375.215 101.513 373.255C103.473 371.295 106.131 370.194 108.903 370.194H391.097C393.869 370.194 396.527 371.295 398.487 373.255C400.447 375.215 401.548 377.873 401.548 380.645C401.548 386.189 399.346 391.506 395.426 395.426C391.506 399.346 386.189 401.548 380.645 401.548Z" fill="black"/>
<path d="M213.419 119.355H286.581V129.806H213.419V119.355ZM297.032 119.355H317.935V129.806H297.032V119.355ZM182.064 140.258H317.935V150.71H182.064V140.258ZM216.482 176.839H187.29C185.904 176.839 184.575 177.389 183.595 178.369C182.615 179.349 182.064 180.679 182.064 182.065V213.419C182.064 214.805 182.615 216.135 183.595 217.115C184.575 218.095 185.904 218.645 187.29 218.645H218.645C220.031 218.645 221.36 218.095 222.34 217.115C223.32 216.135 223.871 214.805 223.871 213.419V184.228L232.791 175.308L225.402 167.918L216.482 176.839ZM213.419 208.194H192.516V187.29H206.03L199.273 194.047L206.662 201.437L213.419 194.68V208.194ZM225.402 235.854L216.482 244.774H187.29C185.904 244.774 184.575 245.325 183.595 246.305C182.615 247.285 182.064 248.614 182.064 250V281.355C182.064 282.741 182.615 284.07 183.595 285.05C184.575 286.03 185.904 286.581 187.29 286.581H218.645C220.031 286.581 221.36 286.03 222.34 285.05C223.32 284.07 223.871 282.741 223.871 281.355V252.164L232.791 243.243L225.402 235.854ZM213.419 276.129H192.516V255.226H206.03L199.273 261.983L206.662 269.372L213.419 262.615V276.129ZM234.323 202.968H317.935V213.419H234.323V202.968ZM255.226 182.065H317.935V192.516H255.226V182.065ZM234.323 270.903H317.935V281.355H234.323V270.903ZM255.226 250H317.935V260.452H255.226V250Z" fill="black"/>
</svg>
