<svg height="512" viewBox="0 0 64 64" width="512" xmlns="http://www.w3.org/2000/svg">
  <g data-name="Layer 14">
    <path d="M6 54V24a4 4 0 014-4h44a4 4 0 014 4v30z" fill="#939393"/>
    <path d="M10 24h44v26H10z" fill="#e2e7f6"/>
    <path d="M10 24h41v23H10z" fill="#f2f2f2"/>
    <path d="M5 54h54a3 3 0 013 3 5 5 0 01-5 5H7a5 5 0 01-5-5 3 3 0 013-3z" fill="#686868"/>
    <path d="M16 2h32v42H16z" fill="#c8cded"/>
    <path d="M16 2h29v36H16z" fill="#e2e7f6"/>
    <path d="M25 7h14v2H25zM41 7h4v2h-4zM19 11h26v2H19z" fill="#9da1bf"/>
    <path d="M20 19h6v6h-6zM20 32h6v6h-6z" fill="#559b2d"/>
    <path d="M20 32h4v4h-4zM20 19h4v4h-4z" fill="#6bc13b"/>
    <path d="M22.287 34.292l5-5 1.413 1.415-4.999 4.999z" fill="#474747"/>
    <g fill="#9da1bf">
      <path d="M29 23h16v2H29zM33 19h12v2H33zM29 36h16v2H29zM33 32h12v2H33z"/>
    </g>
    <path d="M22.288 21.294l5-5L28.7 17.71l-4.999 4.999z" fill="#474747"/>
    <path d="M59 53V24a5.006 5.006 0 00-5-5h-5V2a1 1 0 00-1-1H16a1 1 0 00-1 1v17h-5a5.006 5.006 0 00-5 5v29a4 4 0 00-4 4 6.006 6.006 0 006 6h50a6.006 6.006 0 006-6 4 4 0 00-4-4zM17 3h30v40H17zm31 42a1 1 0 001-1V25h4v24H11V25h4v19a1 1 0 001 1zM7 24a3 3 0 013-3h5v2h-5a1 1 0 00-1 1v26a1 1 0 001 1h44a1 1 0 001-1V24a1 1 0 00-1-1h-5v-2h5a3 3 0 013 3v29H7zm50 37H7a4 4 0 01-4-4 2 2 0 012-2h54a2 2 0 012 2 4 4 0 01-4 4z"/>
    <path d="M25 7h14v2H25zM41 7h4v2h-4zM19 11h26v2H19zM25.586 18H20a1 1 0 00-1 1v6a1 1 0 001 1h6a1 1 0 001-1v-5.586l1.707-1.707-1.414-1.414zM25 24h-4v-4h2.586l-1.293 1.293 1.414 1.414L25 21.414zM27.293 29.293L25.586 31H20a1 1 0 00-1 1v6a1 1 0 001 1h6a1 1 0 001-1v-5.586l1.707-1.707zM25 37h-4v-4h2.586l-1.293 1.293 1.414 1.414L25 34.414zM29 23h16v2H29zM33 19h12v2H33zM29 36h16v2H29zM33 32h12v2H33z"/>
  </g>
</svg>
